<svg id="svg" version="1.1" xmlns="http://www.w3.org/2000/svg" xmlns:xlink="http://www.w3.org/1999/xlink" width="400" height="93.18007662835248" viewBox="0, 0, 400,93.18007662835248"><g id="svgg"><path id="path0" d="M60.500 47.000 L 60.500 93.167 62.333 93.167 L 64.167 93.167 64.167 47.000 L 64.167 0.833 62.333 0.833 L 60.500 0.833 60.500 47.000 M155.833 47.000 L 155.833 93.167 160.000 93.167 L 164.167 93.167 164.167 47.000 L 164.167 0.833 160.000 0.833 L 155.833 0.833 155.833 47.000 M255.833 47.000 L 255.833 93.167 265.500 93.167 L 275.167 93.167 275.167 47.101 C 275.167 5.249,275.143 1.026,274.903 0.934 C 274.758 0.879,270.408 0.833,265.236 0.833 L 255.833 0.833 255.833 47.000 M366.833 47.000 L 366.833 93.167 382.417 93.167 L 398.000 93.167 398.000 47.000 L 398.000 0.833 382.417 0.833 L 366.833 0.833 366.833 47.000 M317.441 31.281 C 317.382 31.341,317.202 31.402,317.042 31.417 C 316.881 31.432,316.337 31.509,315.833 31.587 C 315.329 31.665,314.855 31.713,314.779 31.694 C 314.704 31.674,314.689 31.735,314.747 31.829 C 314.852 31.999,314.534 32.068,313.940 32.006 C 313.755 31.986,313.675 32.046,313.742 32.153 C 313.808 32.260,313.713 32.333,313.510 32.333 C 313.321 32.333,313.167 32.399,313.167 32.479 C 313.167 32.559,312.951 32.668,312.687 32.721 C 312.423 32.774,312.104 32.918,311.978 33.041 C 311.853 33.163,311.521 33.358,311.241 33.472 C 310.961 33.586,310.533 33.864,310.290 34.090 C 310.047 34.315,309.805 34.500,309.752 34.500 C 309.596 34.500,308.500 35.642,308.500 35.803 C 308.500 35.885,308.313 36.154,308.083 36.401 C 307.854 36.648,307.667 36.912,307.667 36.988 C 307.667 37.064,307.550 37.222,307.408 37.340 C 307.151 37.554,306.500 38.842,306.500 39.137 C 306.500 39.223,306.381 39.391,306.237 39.511 C 306.085 39.637,306.004 39.890,306.046 40.110 C 306.086 40.319,306.054 40.450,305.976 40.402 C 305.897 40.353,305.833 40.501,305.833 40.730 C 305.833 40.959,305.758 41.193,305.667 41.250 C 305.575 41.307,305.500 41.686,305.500 42.093 C 305.500 42.500,305.437 42.833,305.361 42.833 C 305.284 42.833,305.205 43.300,305.184 43.871 C 305.163 44.442,305.095 44.949,305.032 44.996 C 304.881 45.110,304.882 49.057,305.032 49.170 C 305.095 49.218,305.163 49.800,305.182 50.462 C 305.201 51.125,305.281 51.667,305.359 51.667 C 305.436 51.667,305.500 51.925,305.500 52.240 C 305.500 52.556,305.577 52.861,305.671 52.919 C 305.765 52.978,305.830 53.113,305.816 53.221 C 305.768 53.571,306.038 54.500,306.188 54.500 C 306.268 54.500,306.333 54.688,306.333 54.917 C 306.333 55.146,306.408 55.333,306.500 55.333 C 306.592 55.333,306.667 55.432,306.667 55.552 C 306.667 55.672,306.817 55.931,307.000 56.128 C 307.183 56.325,307.333 56.605,307.333 56.750 C 307.333 57.025,307.448 57.191,308.203 58.009 C 308.452 58.279,308.615 58.500,308.566 58.500 C 308.517 58.500,308.589 58.613,308.726 58.750 C 308.864 58.887,309.094 59.000,309.238 59.000 C 309.386 59.000,309.500 59.140,309.500 59.322 C 309.500 59.510,309.656 59.694,309.875 59.763 C 310.081 59.828,310.371 60.020,310.520 60.191 C 310.668 60.361,310.911 60.500,311.060 60.500 C 311.209 60.500,311.424 60.650,311.539 60.833 C 311.653 61.017,311.891 61.167,312.068 61.167 C 312.244 61.167,312.338 61.217,312.276 61.279 C 312.113 61.442,313.325 61.826,313.630 61.709 C 313.800 61.644,313.847 61.677,313.768 61.805 C 313.690 61.930,313.771 62.000,313.990 62.000 C 314.179 62.000,314.333 62.064,314.333 62.141 C 314.333 62.219,314.564 62.289,314.845 62.297 C 315.126 62.305,315.445 62.378,315.553 62.458 C 315.661 62.539,316.050 62.626,316.417 62.652 C 316.783 62.678,317.128 62.771,317.182 62.859 C 317.324 63.088,324.550 63.013,324.697 62.780 C 324.759 62.682,325.116 62.607,325.489 62.616 C 325.862 62.624,326.167 62.564,326.167 62.482 C 326.167 62.400,326.396 62.333,326.677 62.333 C 326.974 62.333,327.143 62.264,327.083 62.167 C 327.024 62.071,327.179 61.999,327.448 61.998 C 328.167 61.994,328.667 61.818,328.667 61.569 C 328.667 61.445,328.771 61.384,328.900 61.433 C 329.028 61.482,329.182 61.443,329.243 61.345 C 329.303 61.247,329.503 61.167,329.686 61.167 C 329.872 61.167,329.973 61.091,329.914 60.996 C 329.856 60.902,330.039 60.744,330.321 60.646 C 330.603 60.548,330.833 60.400,330.833 60.317 C 330.833 60.234,330.949 60.167,331.090 60.167 C 331.344 60.167,331.658 59.959,332.050 59.532 C 332.160 59.411,332.644 58.907,333.125 58.410 C 333.606 57.914,334.000 57.463,334.000 57.408 C 334.000 57.354,334.112 57.197,334.250 57.060 C 334.387 56.922,334.500 56.665,334.500 56.488 C 334.500 56.311,334.575 56.167,334.667 56.167 C 334.758 56.167,334.833 56.054,334.833 55.917 C 334.833 55.779,334.908 55.667,335.000 55.667 C 335.092 55.667,335.167 55.517,335.167 55.333 C 335.167 55.150,335.242 55.000,335.333 55.000 C 335.425 55.000,335.500 54.850,335.500 54.667 C 335.500 54.483,335.575 54.333,335.667 54.333 C 335.758 54.333,335.833 54.178,335.833 53.989 C 335.833 53.800,335.908 53.506,335.999 53.336 C 336.090 53.166,336.211 52.514,336.268 51.888 C 336.325 51.262,336.438 50.725,336.519 50.694 C 336.719 50.619,336.708 43.738,336.508 43.373 C 336.421 43.214,336.302 42.572,336.243 41.948 C 336.174 41.202,336.057 40.781,335.903 40.722 C 335.774 40.672,335.713 40.560,335.767 40.472 C 335.860 40.322,335.543 39.346,335.343 39.167 C 335.291 39.121,335.137 38.858,335.000 38.583 C 334.462 37.506,333.620 36.167,333.481 36.167 C 333.400 36.167,333.333 36.071,333.333 35.953 C 333.333 35.836,333.176 35.630,332.984 35.495 C 332.388 35.076,331.943 34.667,332.083 34.667 C 332.157 34.667,332.045 34.517,331.833 34.333 C 331.473 34.021,331.256 33.933,330.958 33.980 C 330.890 33.991,330.833 33.896,330.833 33.768 C 330.833 33.641,330.628 33.485,330.377 33.422 C 330.126 33.358,329.882 33.257,329.835 33.195 C 329.628 32.923,327.966 32.168,327.800 32.271 C 327.688 32.340,327.662 32.309,327.734 32.192 C 327.809 32.071,327.727 32.000,327.510 32.000 C 327.321 32.000,327.167 31.933,327.167 31.850 C 327.167 31.768,326.874 31.712,326.516 31.725 C 326.158 31.739,325.900 31.694,325.942 31.625 C 325.985 31.556,325.959 31.494,325.885 31.487 C 325.811 31.479,325.412 31.435,325.000 31.388 C 323.797 31.251,317.559 31.163,317.441 31.281 M1.668 46.995 L 1.663 62.333 10.655 62.333 C 16.470 62.333,19.683 62.274,19.750 62.167 C 19.807 62.075,20.191 62.000,20.603 62.000 C 21.053 62.000,21.312 61.934,21.252 61.836 C 21.189 61.734,21.343 61.710,21.658 61.773 C 21.984 61.838,22.167 61.808,22.167 61.688 C 22.167 61.584,22.392 61.500,22.667 61.500 C 22.942 61.500,23.167 61.425,23.167 61.333 C 23.167 61.242,23.279 61.167,23.417 61.167 C 23.554 61.167,23.667 61.092,23.667 61.000 C 23.667 60.908,23.800 60.833,23.963 60.833 C 24.126 60.833,24.368 60.683,24.500 60.500 C 24.632 60.317,24.848 60.167,24.979 60.167 C 25.259 60.167,26.494 58.845,26.498 58.542 C 26.499 58.427,26.575 58.333,26.667 58.333 C 26.758 58.333,26.833 58.221,26.833 58.083 C 26.833 57.946,26.908 57.833,27.000 57.833 C 27.092 57.833,27.167 57.654,27.167 57.436 C 27.167 57.217,27.280 56.823,27.420 56.561 C 27.704 56.024,27.755 52.074,27.479 51.904 C 27.396 51.852,27.375 51.733,27.434 51.639 C 27.546 51.457,27.227 50.735,26.867 50.355 C 26.748 50.229,26.606 49.906,26.552 49.637 C 26.489 49.318,26.377 49.178,26.229 49.235 C 26.105 49.282,26.015 49.268,26.028 49.202 C 26.079 48.957,25.790 48.500,25.583 48.500 C 25.465 48.500,25.326 48.387,25.273 48.250 C 25.220 48.112,25.062 48.000,24.922 48.000 C 24.782 48.000,24.667 47.934,24.667 47.854 C 24.667 47.773,24.442 47.614,24.167 47.500 C 23.892 47.386,23.667 47.236,23.667 47.165 C 23.667 47.049,23.089 46.895,22.264 46.790 C 22.088 46.768,21.909 46.637,21.866 46.500 C 21.823 46.362,21.844 46.303,21.914 46.367 C 21.983 46.431,22.145 46.378,22.275 46.249 C 22.404 46.120,22.620 46.057,22.755 46.108 C 22.890 46.160,23.000 46.119,23.000 46.018 C 23.000 45.916,23.133 45.833,23.297 45.833 C 23.460 45.833,23.701 45.683,23.833 45.500 C 23.965 45.317,24.207 45.167,24.370 45.167 C 24.533 45.167,24.648 45.076,24.625 44.966 C 24.602 44.855,24.658 44.760,24.750 44.754 C 25.019 44.735,25.833 43.900,25.833 43.643 C 25.833 43.513,25.983 43.299,26.167 43.167 C 26.350 43.035,26.500 42.760,26.500 42.556 C 26.500 42.353,26.575 42.140,26.667 42.083 C 26.758 42.027,26.833 41.722,26.833 41.407 C 26.833 41.091,26.908 40.833,27.000 40.833 C 27.093 40.833,27.167 40.389,27.167 39.833 C 27.167 39.278,27.093 38.833,27.000 38.833 C 26.908 38.833,26.833 38.465,26.833 38.014 C 26.833 37.563,26.755 37.168,26.659 37.136 C 26.564 37.105,26.473 36.916,26.458 36.717 C 26.443 36.519,26.371 36.393,26.299 36.438 C 26.226 36.483,26.167 36.403,26.167 36.260 C 26.167 36.117,26.097 36.000,26.011 36.000 C 25.926 36.000,25.809 35.852,25.752 35.672 C 25.489 34.844,23.235 33.000,22.486 33.000 C 22.311 33.000,22.167 32.925,22.167 32.833 C 22.167 32.742,22.054 32.667,21.917 32.667 C 21.779 32.667,21.667 32.592,21.667 32.500 C 21.667 32.408,21.446 32.333,21.177 32.333 C 20.907 32.333,20.640 32.258,20.583 32.167 C 20.527 32.075,20.152 32.000,19.750 32.000 C 19.348 32.000,18.976 31.930,18.923 31.844 C 18.865 31.750,15.394 31.681,10.250 31.672 L 1.673 31.657 1.668 46.995 M96.707 46.956 L 96.750 62.250 101.208 62.294 L 105.667 62.339 105.667 56.669 L 105.667 51.000 108.056 51.000 C 109.369 51.000,110.496 51.052,110.560 51.115 C 110.623 51.179,110.831 51.255,111.020 51.283 C 111.354 51.334,111.983 51.940,111.994 52.220 C 111.998 52.296,112.113 52.470,112.252 52.609 C 112.390 52.747,112.460 52.929,112.408 53.013 C 112.356 53.098,112.393 53.167,112.490 53.167 C 112.593 53.167,112.667 53.549,112.667 54.083 C 112.667 54.587,112.742 55.000,112.833 55.000 C 112.932 55.000,113.000 55.611,113.000 56.500 C 113.000 57.325,113.069 58.000,113.153 58.000 C 113.301 58.000,113.485 59.645,113.505 61.144 C 113.521 62.360,113.405 62.333,118.655 62.333 L 123.333 62.333 123.333 61.583 C 123.333 61.171,123.267 60.833,123.186 60.833 C 123.105 60.833,122.979 60.327,122.906 59.708 C 122.833 59.090,122.767 58.546,122.759 58.500 C 122.751 58.454,122.676 58.307,122.591 58.173 C 122.506 58.040,122.458 57.598,122.483 57.192 C 122.508 56.786,122.451 56.406,122.357 56.348 C 122.263 56.290,122.171 55.660,122.152 54.949 C 122.133 54.238,122.054 53.617,121.976 53.568 C 121.897 53.520,121.833 53.147,121.833 52.740 C 121.833 52.333,121.758 52.000,121.667 52.000 C 121.575 52.000,121.500 51.696,121.500 51.323 C 121.500 50.915,121.434 50.688,121.333 50.750 C 121.242 50.807,121.167 50.694,121.167 50.500 C 121.167 50.273,121.097 50.190,120.972 50.268 C 120.841 50.348,120.811 50.298,120.881 50.115 C 120.939 49.966,120.880 49.737,120.751 49.608 C 120.622 49.479,120.562 49.327,120.619 49.270 C 120.676 49.213,120.635 49.167,120.528 49.167 C 120.421 49.167,120.333 49.046,120.333 48.899 C 120.333 48.733,120.241 48.666,120.092 48.724 C 119.930 48.786,119.881 48.736,119.943 48.575 C 120.004 48.417,119.927 48.333,119.721 48.333 C 119.548 48.333,119.299 48.183,119.167 48.000 C 119.026 47.804,118.735 47.667,118.463 47.667 C 118.208 47.667,118.000 47.592,118.000 47.500 C 118.000 47.408,117.737 47.333,117.417 47.333 C 117.096 47.333,116.833 47.258,116.833 47.167 C 116.833 47.075,117.016 47.000,117.240 47.000 C 117.464 47.000,117.688 46.934,117.738 46.852 C 117.789 46.771,118.093 46.655,118.415 46.595 C 118.737 46.534,119.000 46.413,119.000 46.326 C 119.000 46.238,119.150 46.167,119.333 46.167 C 119.517 46.167,119.667 46.092,119.667 46.000 C 119.667 45.908,119.809 45.833,119.982 45.833 C 120.273 45.833,120.589 45.421,120.526 45.125 C 120.512 45.056,120.615 45.000,120.755 45.000 C 120.896 45.000,121.059 44.869,121.119 44.708 C 121.178 44.548,121.363 44.295,121.530 44.147 C 121.697 43.999,121.833 43.788,121.833 43.679 C 121.833 43.570,121.921 43.535,122.028 43.601 C 122.160 43.682,122.188 43.630,122.114 43.438 C 122.047 43.262,122.100 43.118,122.253 43.059 C 122.392 43.006,122.500 42.755,122.500 42.482 C 122.500 42.217,122.558 42.000,122.629 42.000 C 122.700 42.000,122.756 40.950,122.754 39.667 C 122.752 38.383,122.694 37.333,122.625 37.333 C 122.556 37.333,122.500 37.125,122.500 36.870 C 122.500 36.598,122.362 36.308,122.167 36.167 C 121.983 36.035,121.833 35.841,121.833 35.737 C 121.833 35.633,121.594 35.350,121.301 35.108 C 121.009 34.865,120.831 34.667,120.907 34.667 C 120.983 34.667,120.796 34.449,120.492 34.184 C 120.180 33.911,119.831 33.742,119.692 33.795 C 119.535 33.855,119.488 33.821,119.563 33.700 C 119.635 33.583,119.517 33.469,119.257 33.403 C 119.024 33.345,118.832 33.212,118.831 33.107 C 118.829 33.002,118.756 33.029,118.667 33.167 C 118.559 33.333,118.504 33.347,118.503 33.208 C 118.501 33.094,118.383 33.000,118.240 33.000 C 118.097 33.000,118.027 32.925,118.083 32.833 C 118.143 32.736,117.977 32.667,117.686 32.667 C 117.411 32.667,117.140 32.592,117.083 32.500 C 117.027 32.408,116.760 32.333,116.490 32.333 C 116.221 32.333,116.000 32.268,116.000 32.188 C 116.000 32.109,115.615 32.035,115.145 32.024 C 114.675 32.014,114.201 31.931,114.093 31.841 C 113.969 31.738,110.674 31.674,105.280 31.670 L 96.665 31.662 96.707 46.956 M195.167 47.000 L 195.167 62.333 199.083 62.333 L 203.000 62.333 203.000 51.327 C 203.000 41.996,203.035 40.353,203.229 40.534 C 203.355 40.652,203.422 40.842,203.378 40.957 C 203.334 41.073,203.381 41.167,203.482 41.167 C 203.584 41.167,203.667 41.317,203.667 41.500 C 203.667 41.683,203.742 41.833,203.833 41.833 C 203.925 41.833,204.000 42.021,204.000 42.250 C 204.000 42.479,204.075 42.667,204.167 42.667 C 204.258 42.667,204.333 42.817,204.333 43.000 C 204.333 43.183,204.408 43.333,204.500 43.333 C 204.592 43.333,204.667 43.483,204.667 43.667 C 204.667 43.850,204.742 44.000,204.833 44.000 C 204.925 44.000,204.991 44.056,204.980 44.125 C 204.932 44.434,205.012 44.679,205.137 44.602 C 205.212 44.556,205.241 44.739,205.201 45.009 C 205.158 45.302,205.204 45.500,205.314 45.500 C 205.416 45.500,205.500 45.650,205.500 45.833 C 205.500 46.017,205.575 46.167,205.667 46.167 C 205.758 46.167,205.833 46.279,205.833 46.417 C 205.833 46.554,205.908 46.667,206.000 46.667 C 206.092 46.667,206.167 46.817,206.167 47.000 C 206.167 47.183,206.242 47.333,206.333 47.333 C 206.425 47.333,206.500 47.516,206.500 47.740 C 206.500 47.964,206.580 48.197,206.678 48.257 C 206.776 48.318,206.818 48.466,206.772 48.586 C 206.726 48.707,206.796 48.847,206.929 48.898 C 207.061 48.949,207.157 49.049,207.142 49.120 C 207.099 49.320,207.371 49.902,207.571 50.039 C 207.689 50.120,207.675 50.162,207.530 50.164 C 207.365 50.166,207.376 50.233,207.573 50.430 C 207.718 50.575,207.794 50.762,207.742 50.847 C 207.690 50.931,207.726 51.000,207.823 51.000 C 207.921 51.000,208.000 51.112,208.000 51.250 C 208.000 51.387,208.075 51.500,208.167 51.500 C 208.258 51.500,208.333 51.688,208.333 51.917 C 208.333 52.146,208.399 52.333,208.479 52.333 C 208.598 52.333,208.831 53.071,208.823 53.423 C 208.822 53.472,208.940 53.631,209.086 53.776 C 209.231 53.921,209.392 54.251,209.444 54.509 C 209.495 54.768,209.636 55.016,209.756 55.062 C 209.890 55.114,209.937 55.289,209.877 55.516 C 209.811 55.771,209.841 55.848,209.974 55.766 C 210.101 55.688,210.167 55.793,210.167 56.073 C 210.167 56.308,210.242 56.500,210.333 56.500 C 210.425 56.500,210.500 56.637,210.500 56.806 C 210.500 56.974,210.556 57.167,210.625 57.236 C 210.694 57.305,210.755 57.411,210.760 57.472 C 210.766 57.533,210.897 57.874,211.052 58.229 C 211.207 58.584,211.333 58.940,211.333 59.020 C 211.333 59.101,211.483 59.317,211.667 59.500 C 211.850 59.683,212.000 59.983,212.000 60.167 C 212.000 60.350,212.075 60.500,212.167 60.500 C 212.258 60.500,212.333 60.715,212.333 60.978 C 212.333 61.240,212.489 61.653,212.679 61.894 L 213.024 62.333 219.098 62.333 L 225.172 62.333 225.164 47.008 L 225.157 31.682 221.037 31.716 L 216.917 31.750 216.874 42.042 C 216.846 48.710,216.773 52.333,216.665 52.333 C 216.574 52.333,216.500 52.183,216.500 52.000 C 216.500 51.817,216.425 51.667,216.333 51.667 C 216.242 51.667,216.167 51.521,216.167 51.343 C 216.167 51.165,216.090 50.973,215.997 50.915 C 215.904 50.857,215.871 50.740,215.924 50.655 C 215.977 50.570,215.940 50.500,215.843 50.500 C 215.746 50.500,215.667 50.350,215.667 50.167 C 215.667 49.983,215.592 49.833,215.500 49.833 C 215.408 49.833,215.333 49.646,215.333 49.417 C 215.333 49.188,215.258 49.000,215.167 49.000 C 215.075 49.000,215.000 48.850,215.000 48.667 C 215.000 48.483,214.925 48.333,214.833 48.333 C 214.742 48.333,214.667 48.179,214.667 47.990 C 214.667 47.801,214.592 47.693,214.500 47.750 C 214.408 47.807,214.334 47.717,214.334 47.552 C 214.335 47.073,213.778 45.614,213.458 45.260 C 213.298 45.083,213.167 44.801,213.167 44.635 C 213.167 44.469,213.092 44.333,213.000 44.333 C 212.908 44.333,212.833 44.183,212.833 44.000 C 212.833 43.817,212.758 43.667,212.667 43.667 C 212.575 43.667,212.500 43.475,212.500 43.240 C 212.500 43.002,212.427 42.859,212.335 42.915 C 212.241 42.974,212.213 42.907,212.270 42.759 C 212.324 42.616,212.282 42.500,212.175 42.500 C 212.068 42.500,212.027 42.425,212.083 42.333 C 212.140 42.242,212.114 42.167,212.025 42.167 C 211.937 42.167,211.904 42.017,211.952 41.833 C 212.013 41.598,211.957 41.500,211.760 41.500 C 211.606 41.500,211.525 41.428,211.579 41.340 C 211.633 41.252,211.607 41.046,211.520 40.882 C 211.042 39.978,210.500 38.681,210.500 38.442 C 210.500 38.290,210.434 38.167,210.354 38.167 C 210.273 38.167,210.114 37.923,209.999 37.625 C 209.666 36.758,208.767 34.946,208.557 34.716 C 208.450 34.601,208.406 34.343,208.458 34.144 C 208.521 33.904,208.490 33.820,208.368 33.895 C 208.251 33.968,208.208 33.887,208.249 33.671 C 208.285 33.485,208.244 33.333,208.157 33.333 C 208.071 33.333,208.000 33.221,208.000 33.083 C 208.000 32.946,207.925 32.833,207.833 32.833 C 207.742 32.833,207.667 32.673,207.667 32.477 C 207.667 31.702,207.465 31.678,201.125 31.672 L 195.167 31.667 195.167 47.000 M322.000 37.631 C 322.000 37.703,322.244 37.781,322.542 37.803 C 322.840 37.826,323.108 37.917,323.139 38.005 C 323.169 38.094,323.338 38.167,323.514 38.167 C 323.690 38.167,323.833 38.237,323.833 38.322 C 323.833 38.408,324.002 38.528,324.208 38.590 C 324.733 38.749,325.667 39.672,325.667 40.033 C 325.667 40.198,325.742 40.333,325.833 40.333 C 325.925 40.333,326.000 40.446,326.000 40.583 C 326.000 40.721,326.075 40.833,326.167 40.833 C 326.258 40.833,326.333 40.983,326.333 41.167 C 326.333 41.350,326.400 41.500,326.481 41.500 C 326.562 41.500,326.680 41.914,326.743 42.419 C 326.806 42.924,326.916 43.302,326.986 43.259 C 327.105 43.185,327.195 44.079,327.215 45.534 C 327.219 45.874,327.285 46.113,327.361 46.066 C 327.438 46.019,327.500 46.510,327.500 47.157 C 327.500 47.804,327.430 48.333,327.344 48.333 C 327.259 48.333,327.183 48.802,327.176 49.375 C 327.159 50.816,327.134 51.000,326.953 51.000 C 326.867 51.000,326.829 51.225,326.869 51.500 C 326.909 51.775,326.880 52.000,326.804 52.000 C 326.729 52.000,326.667 52.154,326.667 52.343 C 326.667 52.532,326.592 52.640,326.500 52.583 C 326.405 52.524,326.333 52.672,326.333 52.929 C 326.333 53.176,326.202 53.499,326.041 53.647 C 325.879 53.795,325.643 54.120,325.515 54.369 C 325.388 54.618,325.219 54.783,325.142 54.734 C 325.064 54.686,325.000 54.715,325.000 54.798 C 325.000 55.062,324.387 55.667,324.119 55.667 C 323.977 55.667,323.832 55.754,323.797 55.860 C 323.761 55.967,323.623 56.072,323.491 56.093 C 322.984 56.174,322.747 56.254,322.658 56.374 C 322.526 56.550,319.310 56.561,319.186 56.386 C 319.130 56.306,318.915 56.251,318.708 56.264 C 318.502 56.277,318.333 56.223,318.333 56.144 C 318.333 56.065,318.141 56.000,317.907 56.000 C 317.665 56.000,317.525 55.928,317.583 55.833 C 317.640 55.742,317.626 55.667,317.552 55.666 C 317.384 55.666,316.500 54.916,316.500 54.774 C 316.500 54.716,316.275 54.455,316.000 54.192 C 315.725 53.929,315.500 53.591,315.500 53.440 C 315.500 53.290,315.443 53.167,315.373 53.167 C 315.206 53.167,314.805 51.629,314.709 50.625 C 314.668 50.190,314.567 49.833,314.484 49.833 C 314.401 49.833,314.333 48.643,314.333 47.167 C 314.333 45.500,314.396 44.500,314.500 44.500 C 314.592 44.500,314.667 44.163,314.667 43.750 C 314.667 43.337,314.744 43.000,314.839 43.000 C 314.953 43.000,314.947 42.879,314.823 42.647 C 314.719 42.452,314.707 42.338,314.796 42.394 C 314.886 42.449,315.006 42.197,315.064 41.830 C 315.123 41.465,315.245 41.167,315.335 41.167 C 315.426 41.167,315.500 41.028,315.500 40.858 C 315.500 40.688,315.725 40.314,316.000 40.026 C 316.275 39.738,316.500 39.427,316.500 39.335 C 316.500 39.242,316.575 39.167,316.667 39.167 C 316.758 39.167,316.965 39.035,317.127 38.875 C 317.857 38.149,318.410 37.833,318.949 37.833 C 319.287 37.833,319.478 37.765,319.417 37.667 C 319.351 37.561,319.804 37.500,320.657 37.500 C 321.396 37.500,322.000 37.559,322.000 37.631 M15.837 38.360 C 16.141 38.466,16.631 38.800,16.924 39.102 C 17.218 39.405,17.505 39.606,17.563 39.549 C 17.620 39.491,17.667 39.644,17.667 39.889 C 17.667 40.133,17.742 40.333,17.833 40.333 C 18.059 40.333,18.043 40.770,17.792 41.488 C 17.516 42.277,16.438 43.333,15.910 43.333 C 15.684 43.333,15.500 43.408,15.500 43.500 C 15.500 43.604,14.556 43.667,13.000 43.667 L 10.500 43.667 10.500 40.917 L 10.500 38.167 12.892 38.167 C 14.273 38.167,15.517 38.248,15.837 38.360 M110.561 38.297 C 110.605 38.369,110.877 38.445,111.165 38.467 C 112.104 38.539,113.333 39.546,113.333 40.242 C 113.333 40.476,113.394 40.667,113.468 40.667 C 113.542 40.667,113.529 41.154,113.440 41.750 C 113.351 42.346,113.216 42.833,113.139 42.833 C 113.063 42.833,113.000 42.941,113.000 43.072 C 113.000 43.203,112.850 43.358,112.667 43.417 C 112.483 43.475,112.333 43.597,112.333 43.688 C 112.333 43.779,112.258 43.807,112.167 43.750 C 112.075 43.693,112.000 43.726,112.000 43.823 C 112.000 43.921,111.888 44.000,111.750 44.000 C 111.612 44.000,111.500 44.075,111.500 44.167 C 111.500 44.258,111.087 44.333,110.583 44.333 C 110.079 44.333,109.667 44.408,109.667 44.500 C 109.667 44.602,108.889 44.667,107.667 44.667 L 105.667 44.667 105.667 41.417 L 105.667 38.167 108.073 38.167 C 109.397 38.167,110.517 38.225,110.561 38.297 M16.560 50.417 C 16.697 50.554,16.893 50.667,16.996 50.667 C 17.273 50.667,18.000 51.446,18.000 51.742 C 18.000 51.884,18.079 52.000,18.177 52.000 C 18.274 52.000,18.311 52.069,18.259 52.153 C 18.207 52.237,18.240 52.503,18.332 52.746 C 18.442 53.036,18.443 53.151,18.333 53.083 C 18.100 52.939,18.125 53.225,18.367 53.467 C 18.500 53.600,18.506 53.667,18.385 53.667 C 18.285 53.667,18.153 53.864,18.093 54.105 C 17.943 54.703,16.758 55.858,16.425 55.730 C 16.283 55.676,16.167 55.714,16.167 55.816 C 16.167 55.943,15.294 56.000,13.333 56.000 L 10.500 56.000 10.500 53.083 L 10.500 50.167 13.405 50.167 C 15.765 50.167,16.356 50.214,16.560 50.417 " stroke="none" fill="#d4041c" fill-rule="evenodd"></path><path id="path1" d="M366.749 47.000 C 366.749 72.438,366.768 82.844,366.792 70.125 C 366.815 57.406,366.815 36.594,366.792 23.875 C 366.768 11.156,366.749 21.563,366.749 47.000 M317.977 38.161 C 317.760 38.341,317.677 38.491,317.792 38.494 C 317.906 38.498,318.000 38.425,318.000 38.333 C 318.000 38.242,318.108 38.167,318.240 38.167 C 318.372 38.167,318.527 38.092,318.583 38.000 C 318.758 37.718,318.392 37.815,317.977 38.161 M122.718 39.750 C 122.719 40.300,122.750 40.505,122.787 40.205 C 122.825 39.906,122.824 39.456,122.786 39.205 C 122.748 38.955,122.717 39.200,122.718 39.750 M304.894 47.083 C 304.895 48.000,304.923 48.354,304.956 47.869 C 304.990 47.385,304.990 46.635,304.956 46.203 C 304.921 45.770,304.894 46.167,304.894 47.083 " stroke="none" fill="#d8041c" fill-rule="evenodd"></path><path id="path2" d="M366.749 47.000 C 366.749 72.438,366.768 82.844,366.792 70.125 C 366.815 57.406,366.815 36.594,366.792 23.875 C 366.768 11.156,366.749 21.563,366.749 47.000 M317.977 38.161 C 317.760 38.341,317.677 38.491,317.792 38.494 C 317.906 38.498,318.000 38.425,318.000 38.333 C 318.000 38.242,318.108 38.167,318.240 38.167 C 318.372 38.167,318.527 38.092,318.583 38.000 C 318.758 37.718,318.392 37.815,317.977 38.161 M122.718 39.750 C 122.719 40.300,122.750 40.505,122.787 40.205 C 122.825 39.906,122.824 39.456,122.786 39.205 C 122.748 38.955,122.717 39.200,122.718 39.750 M304.894 47.083 C 304.895 48.000,304.923 48.354,304.956 47.869 C 304.990 47.385,304.990 46.635,304.956 46.203 C 304.921 45.770,304.894 46.167,304.894 47.083 " stroke="none" fill="#d8041c" fill-rule="evenodd"></path><path id="path3" d="M366.749 47.000 C 366.749 72.438,366.768 82.844,366.792 70.125 C 366.815 57.406,366.815 36.594,366.792 23.875 C 366.768 11.156,366.749 21.563,366.749 47.000 M317.977 38.161 C 317.760 38.341,317.677 38.491,317.792 38.494 C 317.906 38.498,318.000 38.425,318.000 38.333 C 318.000 38.242,318.108 38.167,318.240 38.167 C 318.372 38.167,318.527 38.092,318.583 38.000 C 318.758 37.718,318.392 37.815,317.977 38.161 M122.718 39.750 C 122.719 40.300,122.750 40.505,122.787 40.205 C 122.825 39.906,122.824 39.456,122.786 39.205 C 122.748 38.955,122.717 39.200,122.718 39.750 M304.894 47.083 C 304.895 48.000,304.923 48.354,304.956 47.869 C 304.990 47.385,304.990 46.635,304.956 46.203 C 304.921 45.770,304.894 46.167,304.894 47.083 " stroke="none" fill="#d8041c" fill-rule="evenodd"></path><path id="path4" d="M366.749 47.000 C 366.749 72.438,366.768 82.844,366.792 70.125 C 366.815 57.406,366.815 36.594,366.792 23.875 C 366.768 11.156,366.749 21.563,366.749 47.000 M317.977 38.161 C 317.760 38.341,317.677 38.491,317.792 38.494 C 317.906 38.498,318.000 38.425,318.000 38.333 C 318.000 38.242,318.108 38.167,318.240 38.167 C 318.372 38.167,318.527 38.092,318.583 38.000 C 318.758 37.718,318.392 37.815,317.977 38.161 M122.718 39.750 C 122.719 40.300,122.750 40.505,122.787 40.205 C 122.825 39.906,122.824 39.456,122.786 39.205 C 122.748 38.955,122.717 39.200,122.718 39.750 M304.894 47.083 C 304.895 48.000,304.923 48.354,304.956 47.869 C 304.990 47.385,304.990 46.635,304.956 46.203 C 304.921 45.770,304.894 46.167,304.894 47.083 " stroke="none" fill="#d8041c" fill-rule="evenodd"></path></g></svg>