<?xml version="1.0" encoding="UTF-8" standalone="no"?><!DOCTYPE svg PUBLIC "-//W3C//DTD SVG 1.1//EN" "http://www.w3.org/Graphics/SVG/1.1/DTD/svg11.dtd"><svg width="100%" height="100%" viewBox="0 0 101 111" version="1.1" xmlns="http://www.w3.org/2000/svg" xmlns:xlink="http://www.w3.org/1999/xlink" xml:space="preserve" xmlns:serif="http://www.serif.com/" style="fill-rule:evenodd;clip-rule:evenodd;stroke-linejoin:round;stroke-miterlimit:2;"><path id="vzdelani" d="M51.038,0.2C57.896,0.216 64.716,1.634 70.977,4.374C79.241,7.992 86.496,13.9 91.737,21.268C96.319,27.71 99.343,35.256 100.463,43.069C101.539,50.577 100.896,58.319 98.581,65.519C95.487,75.14 89.39,83.74 81.413,89.876C74.291,95.354 65.674,98.859 56.773,99.892C49.512,100.735 42.079,99.976 35.164,97.678L35.11,97.66C35.103,97.684 35.096,97.708 35.09,97.732C33.992,101.643 31.481,105.144 28.118,107.438C24.22,110.096 19.207,111.068 14.568,110.042C10.347,109.108 6.513,106.53 4.034,102.956C1.099,98.723 0.171,93.165 1.648,88.149C2.873,83.989 5.673,80.365 9.449,78.111C9.449,78.111 9.183,77.712 8.959,77.367C4.815,70.974 2.163,63.618 1.281,56.052C0.311,47.73 1.456,39.143 4.614,31.386C7.57,24.124 12.265,17.589 18.176,12.452C25.178,6.368 33.898,2.282 43.036,0.825C45.63,0.411 48.266,0.206 50.876,0.2C50.93,0.2 50.984,0.2 51.038,0.2ZM50.881,3.43C45.042,3.444 39.18,4.548 33.744,6.703C23.818,10.638 15.314,18.098 10.095,27.428C4.572,37.303 2.807,49.177 5.273,60.336C6.518,65.973 8.835,71.381 12.04,76.173C12.393,76.701 12.758,77.223 13.132,77.736L13.279,77.981C13.369,78.218 13.409,78.275 13.434,78.53C13.49,79.1 13.22,79.687 12.745,80.016C12.508,80.179 12.238,80.274 11.983,80.402C8.693,82.058 6.076,85.054 4.899,88.574C3.719,92.107 4.003,96.099 5.683,99.427C7.267,102.563 10.051,105.075 13.346,106.317C16.969,107.683 21.163,107.474 24.633,105.746C28.557,103.791 31.484,99.945 32.271,95.588C32.29,95.483 32.307,95.377 32.324,95.271L32.394,94.993C32.498,94.763 32.51,94.694 32.673,94.496C33.037,94.055 33.644,93.83 34.212,93.935C34.435,93.976 34.639,94.069 34.849,94.146C43.935,97.475 54.136,97.909 63.55,95.28C71.221,93.138 78.322,88.979 83.981,83.337C90.63,76.71 95.243,68.03 96.957,58.78C98.718,49.267 97.484,39.228 93.338,30.389C89.279,21.734 82.496,14.385 74.234,9.631C68.038,6.066 61.007,3.961 53.886,3.52C52.886,3.458 51.89,3.429 50.881,3.43ZM35.114,45.589L23.571,41.87C22.487,41.515 21.626,40.555 21.4,39.438C21.111,38.01 21.896,36.43 23.286,35.831C23.325,35.814 23.365,35.798 23.405,35.782C31.618,32.668 39.86,29.631 48.087,26.555C49.15,26.162 50.349,26.135 51.419,26.471C60.402,29.337 69.368,32.255 78.342,35.147C79.434,35.505 80.302,36.479 80.52,37.609C80.797,39.053 79.971,40.638 78.569,41.211C78.54,41.222 78.512,41.233 78.483,41.244L53.826,50.461C52.755,50.858 51.549,50.882 50.471,50.538L46.581,49.285C46.494,49.248 46.404,49.219 46.321,49.175C45.656,48.824 45.307,47.972 45.539,47.252C45.74,46.627 46.346,46.159 47.016,46.134C47.203,46.127 47.388,46.169 47.571,46.21C48.874,46.63 50.173,47.06 51.479,47.469C51.868,47.589 52.294,47.58 52.678,47.442C60.926,44.433 69.141,41.337 77.348,38.22C68.421,35.195 59.428,32.369 50.435,29.547C50.043,29.427 49.617,29.438 49.235,29.575C40.989,32.583 32.791,35.722 24.569,38.795L35.759,42.404C35.799,42.374 35.841,42.345 35.883,42.319C35.961,42.271 36.047,42.237 36.128,42.196L50.356,36.498C50.625,36.416 50.626,36.416 50.905,36.383C50.999,36.388 51.093,36.393 51.186,36.398C51.278,36.42 51.371,36.433 51.46,36.463C52.085,36.667 52.55,37.276 52.571,37.946C52.589,38.51 52.289,39.071 51.808,39.369C51.729,39.419 51.641,39.454 51.557,39.496L38.344,44.788L38.344,63.512C39.731,63.914 40.976,64.815 41.756,66.048C42.349,66.987 42.668,68.095 42.674,69.204C42.676,70.962 42.677,72.72 42.674,74.478C42.66,75.818 41.766,77.083 40.48,77.518C40.153,77.629 39.808,77.685 39.464,77.688C37.641,77.694 35.817,77.694 33.993,77.688C33.053,77.679 32.133,77.244 31.534,76.528C31.058,75.958 30.791,75.221 30.784,74.479C30.778,72.714 30.775,70.95 30.784,69.185C30.791,68.225 31.047,67.28 31.499,66.437C30.118,65.475 29.227,63.821 29.214,62.118C29.206,57.426 29.203,52.757 29.202,48.084L29.202,47.654C29.224,47.406 29.214,47.338 29.3,47.102C29.46,46.662 29.821,46.298 30.265,46.136C30.502,46.05 30.569,46.061 30.817,46.039C30.911,46.047 31.004,46.055 31.098,46.063C31.338,46.128 31.407,46.129 31.625,46.255C31.951,46.444 32.206,46.747 32.335,47.101C32.421,47.338 32.411,47.406 32.432,47.654C32.433,52.323 32.433,56.983 32.443,61.641C32.443,61.991 32.43,62.342 32.527,62.672C32.693,63.233 33.109,63.711 33.642,63.954L33.663,63.964L33.81,64.045C34.01,63.932 34.217,63.829 34.431,63.739C34.653,63.646 34.881,63.567 35.114,63.502L35.114,45.589ZM36.719,66.509C35.317,66.515 34.021,67.712 34.014,69.214C34.012,70.962 34.008,72.71 34.014,74.458L34.014,74.458C35.823,74.464 37.632,74.458 39.441,74.458L39.444,74.458C39.447,72.704 39.457,70.95 39.444,69.196C39.428,67.808 38.24,66.539 36.783,66.509C36.762,66.509 36.74,66.509 36.719,66.509ZM71.662,46.075C71.9,46.148 71.968,46.152 72.182,46.285C72.501,46.485 72.745,46.798 72.861,47.157C72.944,47.414 72.944,47.472 72.936,47.773C72.903,49.154 72.922,50.533 72.924,51.913C72.927,55.242 72.938,58.576 72.939,61.898C72.939,62.49 72.884,63.083 72.713,63.647C72.271,65.111 71.152,66.359 69.75,66.97C62.779,69.933 55.323,71.485 47.774,70.953C47.554,70.937 47.334,70.92 47.115,70.901L47.023,70.893L46.746,70.844C46.657,70.812 46.566,70.787 46.481,70.748C45.801,70.43 45.407,69.6 45.604,68.866C45.774,68.23 46.365,67.733 47.023,67.675C47.257,67.655 47.486,67.691 47.717,67.709C54.354,68.223 61.066,66.962 67.223,64.517C67.841,64.272 68.521,64.08 68.988,63.681C69.436,63.299 69.704,62.72 69.709,62.127C69.723,57.554 69.666,52.95 69.699,48.341C69.701,48.092 69.701,47.843 69.71,47.595L69.745,47.316C69.818,47.078 69.822,47.01 69.955,46.796C70.156,46.477 70.468,46.233 70.827,46.117C71.066,46.04 71.134,46.053 71.382,46.04C71.476,46.051 71.569,46.063 71.662,46.075Z" style="fill:#8f8f8f;"/></svg>