<?xml version="1.0" encoding="UTF-8" standalone="no"?><!DOCTYPE svg PUBLIC "-//W3C//DTD SVG 1.1//EN" "http://www.w3.org/Graphics/SVG/1.1/DTD/svg11.dtd"><svg width="100%" height="100%" viewBox="0 0 29 26" version="1.1" xmlns="http://www.w3.org/2000/svg" xmlns:xlink="http://www.w3.org/1999/xlink" xml:space="preserve" xmlns:serif="http://www.serif.com/" style="fill-rule:evenodd;clip-rule:evenodd;stroke-linejoin:round;stroke-miterlimit:2;"><path id="vzdelani-icon" d="M7.176,9.942L1.709,8.181C1.196,8.012 0.788,7.558 0.681,7.029C0.544,6.353 0.916,5.604 1.574,5.32C1.593,5.312 1.611,5.305 1.63,5.298C5.52,3.823 9.423,2.384 13.32,0.928C13.823,0.741 14.391,0.729 14.898,0.888C19.152,2.245 23.398,3.627 27.649,4.997C28.166,5.166 28.577,5.628 28.68,6.163C28.811,6.846 28.42,7.597 27.756,7.868C27.742,7.874 27.729,7.879 27.715,7.884L16.038,12.25C15.531,12.437 14.959,12.449 14.449,12.286L12.606,11.692C12.565,11.675 12.523,11.661 12.483,11.641C12.169,11.474 12.003,11.071 12.113,10.73C12.208,10.434 12.495,10.212 12.812,10.2C12.901,10.197 12.989,10.217 13.076,10.236C13.692,10.435 14.308,10.639 14.926,10.833C15.11,10.889 15.312,10.885 15.494,10.82C19.4,9.395 23.291,7.928 27.178,6.452C22.95,5.019 18.691,3.681 14.432,2.345C14.246,2.288 14.044,2.293 13.863,2.358C9.958,3.782 6.075,5.269 2.182,6.725L7.481,8.434C7.5,8.419 7.52,8.406 7.54,8.393C7.577,8.371 7.617,8.355 7.656,8.335L14.394,5.636C14.522,5.598 14.522,5.598 14.654,5.582C14.699,5.584 14.743,5.587 14.788,5.589C14.831,5.6 14.875,5.606 14.917,5.62C15.213,5.717 15.433,6.005 15.443,6.322C15.452,6.59 15.31,6.855 15.082,6.996C15.044,7.02 15.003,7.036 14.963,7.057L8.705,9.563L8.705,18.43C9.362,18.621 9.952,19.048 10.321,19.632C10.602,20.076 10.753,20.601 10.756,21.126C10.757,21.959 10.757,22.791 10.756,23.624C10.75,24.259 10.326,24.857 9.717,25.064C9.562,25.116 9.399,25.143 9.236,25.144C8.372,25.147 7.509,25.147 6.645,25.144C6.199,25.14 5.764,24.934 5.48,24.595C5.255,24.325 5.128,23.976 5.125,23.625C5.122,22.789 5.121,21.953 5.125,21.117C5.128,20.662 5.249,20.215 5.464,19.816C4.809,19.36 4.388,18.577 4.381,17.77C4.378,15.548 4.376,13.337 4.376,11.124L4.376,10.92C4.386,10.803 4.381,10.77 4.422,10.658C4.498,10.45 4.669,10.278 4.879,10.201C4.991,10.16 5.023,10.165 5.141,10.155C5.185,10.159 5.229,10.163 5.274,10.167C5.387,10.197 5.42,10.198 5.523,10.258C5.678,10.347 5.799,10.491 5.86,10.658C5.9,10.77 5.895,10.802 5.906,10.92C5.906,13.131 5.906,15.338 5.911,17.544C5.911,17.71 5.904,17.876 5.95,18.032C6.029,18.298 6.226,18.524 6.479,18.64L6.488,18.644L6.558,18.683C6.653,18.629 6.751,18.581 6.852,18.538C6.957,18.494 7.065,18.456 7.176,18.426L7.176,9.942ZM7.936,19.85C7.272,19.853 6.658,20.419 6.655,21.131C6.654,21.959 6.652,22.786 6.655,23.614L6.655,23.614C7.511,23.617 8.368,23.614 9.225,23.614L9.226,23.614C9.228,22.784 9.232,21.953 9.226,21.122C9.219,20.465 8.656,19.864 7.966,19.85C7.956,19.85 7.946,19.85 7.936,19.85ZM24.485,10.172C24.597,10.207 24.63,10.209 24.731,10.272C24.882,10.367 24.998,10.515 25.053,10.685C25.092,10.806 25.092,10.834 25.088,10.976C25.073,11.631 25.082,12.284 25.082,12.937C25.084,14.514 25.089,16.093 25.09,17.666C25.09,17.946 25.063,18.227 24.983,18.494C24.773,19.188 24.243,19.779 23.58,20.068C20.278,21.471 16.747,22.207 13.171,21.954C13.067,21.947 12.963,21.939 12.859,21.93L12.816,21.926L12.684,21.903C12.643,21.888 12.599,21.876 12.559,21.857C12.237,21.707 12.05,21.314 12.144,20.966C12.224,20.665 12.504,20.429 12.816,20.402C12.927,20.392 13.035,20.41 13.144,20.418C16.288,20.661 19.467,20.064 22.382,18.906C22.675,18.79 22.997,18.699 23.219,18.511C23.43,18.33 23.558,18.055 23.56,17.774C23.567,15.609 23.54,13.428 23.555,11.245C23.556,11.128 23.556,11.01 23.56,10.892L23.577,10.76C23.611,10.647 23.613,10.615 23.677,10.514C23.771,10.363 23.92,10.247 24.089,10.192C24.203,10.156 24.235,10.162 24.352,10.156C24.397,10.161 24.441,10.167 24.485,10.172Z" style="fill:#8f8f8f;"/></svg>